<?xml version="1.0" encoding="UTF-8"?>
<!-- Generator: visioncortex VTracer 0.6.4 -->
<svg version="1.1" xmlns="http://www.w3.org/2000/svg" width="513" height="486">
<path d="M0 0 C0.51 0.465 1.021 0.93 1.547 1.409 C2.743 2.539 3.878 3.733 5 4.938 C5 5.597 5 6.257 5 6.938 C5.66 6.938 6.32 6.938 7 6.938 C9.141 9.235 10.879 11.874 12.688 14.438 C13.496 15.583 13.496 15.583 14.32 16.752 C19.344 24.087 22.865 31.648 26 39.938 C26.503 41.196 26.503 41.196 27.016 42.48 C34.908 63.72 32.311 88.227 23.207 108.434 C13.811 128.25 -3.696 140.382 -23.629 148.094 C-28.622 149.871 -33.477 150.932 -38.746 151.488 C-39.946 151.617 -39.946 151.617 -41.17 151.747 C-41.774 151.81 -42.378 151.873 -43 151.938 C-43.087 156.021 -43.14 160.104 -43.188 164.188 C-43.213 165.346 -43.238 166.505 -43.264 167.699 C-43.273 168.814 -43.283 169.929 -43.293 171.078 C-43.317 172.618 -43.317 172.618 -43.341 174.188 C-42.951 177.334 -42.015 178.558 -40 180.938 C-39.336 184.342 -39.414 187.522 -40 190.938 C-42.393 194.387 -43.959 195.605 -47.938 196.875 C-52.242 196.963 -55.485 196.149 -58.875 193.438 C-60 191.938 -60 191.938 -60 189.938 C-61.135 189.953 -62.271 189.969 -63.441 189.985 C-67.651 190.039 -71.86 190.074 -76.071 190.102 C-77.893 190.117 -79.716 190.138 -81.538 190.164 C-84.157 190.2 -86.776 190.217 -89.395 190.23 C-90.21 190.246 -91.026 190.261 -91.866 190.277 C-97.588 190.279 -97.588 190.279 -99.634 188.584 C-101.357 186.507 -102.67 184.281 -104 181.938 C-104.292 182.765 -104.585 183.592 -104.886 184.444 C-105.976 187.524 -107.069 190.603 -108.163 193.681 C-108.635 195.011 -109.106 196.342 -109.577 197.673 C-110.254 199.59 -110.935 201.506 -111.617 203.422 C-112.026 204.574 -112.434 205.726 -112.855 206.913 C-113.781 209.358 -114.77 211.636 -116 213.938 C-117.65 213.938 -119.3 213.938 -121 213.938 C-124.522 206.836 -126.607 199.6 -128.562 191.938 C-130.484 184.509 -132.474 177.186 -135 169.938 C-137.542 175.561 -139.939 181.213 -142.168 186.969 C-143 188.938 -143 188.938 -144 189.938 C-146.521 190.026 -149.014 190.053 -151.535 190.035 C-152.665 190.033 -152.665 190.033 -153.818 190.031 C-156.233 190.025 -158.648 190.013 -161.062 190 C-162.696 189.995 -164.329 189.99 -165.963 189.986 C-169.975 189.975 -173.988 189.958 -178 189.938 C-178.296 190.561 -178.593 191.185 -178.898 191.828 C-180.302 194.516 -181.302 195.518 -184 196.938 C-187.854 197.374 -191.296 197.172 -195 195.938 C-195 195.278 -195 194.618 -195 193.938 C-195.66 193.938 -196.32 193.938 -197 193.938 C-199.815 189.716 -199.807 185.897 -199 180.938 C-196.562 177.875 -196.562 177.875 -194 175.938 C-193.67 175.607 -193.34 175.278 -193 174.938 C-191.145 174.664 -191.145 174.664 -188.812 174.562 C-188.056 174.514 -187.299 174.465 -186.52 174.414 C-184 174.938 -184 174.938 -181.629 177.41 C-176.678 181.858 -169.392 180.725 -163.125 180.75 C-161.755 180.773 -160.385 180.799 -159.016 180.826 C-155.677 180.885 -152.339 180.921 -149 180.938 C-148.825 180.397 -148.65 179.857 -148.469 179.301 C-146.61 173.638 -144.589 168.058 -142.438 162.5 C-142.134 161.699 -141.83 160.898 -141.518 160.072 C-141.222 159.307 -140.926 158.542 -140.621 157.754 C-140.357 157.068 -140.094 156.381 -139.822 155.674 C-139 153.938 -139 153.938 -137 151.938 C-134.375 151.812 -134.375 151.812 -132 151.938 C-129.293 157.855 -127.366 163.897 -125.5 170.125 C-125.192 171.144 -124.884 172.162 -124.566 173.211 C-122.695 179.446 -120.953 185.676 -119.508 192.023 C-119.173 193.932 -119.173 193.932 -118 194.938 C-117.733 194.16 -117.465 193.383 -117.19 192.583 C-115.982 189.075 -114.772 185.569 -113.562 182.062 C-113.142 180.839 -112.721 179.616 -112.287 178.355 C-111.884 177.189 -111.481 176.022 -111.066 174.82 C-110.695 173.742 -110.323 172.663 -109.94 171.551 C-109 168.938 -109 168.938 -108 166.938 C-105.69 166.938 -103.38 166.938 -101 166.938 C-100.185 168.54 -99.373 170.145 -98.562 171.75 C-97.884 173.09 -97.884 173.09 -97.191 174.457 C-96 176.938 -96 176.938 -95 179.938 C-90.25 180.061 -85.5 180.152 -80.748 180.212 C-79.133 180.237 -77.518 180.271 -75.904 180.315 C-73.577 180.376 -71.253 180.404 -68.926 180.426 C-68.208 180.452 -67.49 180.477 -66.75 180.504 C-63.017 180.506 -61.128 180.027 -58.047 177.871 C-55.474 174.184 -55.36 171.992 -55.328 167.52 C-55.315 166.821 -55.303 166.123 -55.289 165.403 C-55.253 163.185 -55.25 160.968 -55.25 158.75 C-55.228 156.522 -55.2 154.293 -55.168 152.065 C-55.142 150.051 -55.133 148.037 -55.126 146.023 C-55 142.938 -55 142.938 -54 140.938 C-50.895 139.902 -48.509 139.767 -45.25 139.625 C-30.025 138.522 -16.758 133.582 -5 123.938 C-4.331 123.414 -3.662 122.891 -2.973 122.352 C7.05 114.157 13.869 102.704 16.641 90.113 C16.899 88.954 17.157 87.794 17.423 86.599 C17.613 85.721 17.804 84.842 18 83.938 C16.948 83.968 15.897 83.998 14.813 84.029 C10.812 84.144 6.81 84.255 2.808 84.365 C1.095 84.412 -0.618 84.461 -2.331 84.51 C-3.996 84.558 -5.66 84.605 -7.324 84.65 C-9.001 84.696 -10.678 84.745 -12.354 84.797 C-16.691 84.917 -20.99 84.928 -25.326 84.758 C-26.186 84.732 -27.046 84.706 -27.932 84.679 C-29.566 84.624 -31.2 84.544 -32.831 84.436 C-35.805 84.347 -38.214 84.28 -40.57 86.25 C-42.104 88.062 -42.104 88.062 -44 90.938 C-48.267 93.81 -53.037 93.588 -58 92.938 C-61.479 91.103 -64.496 88.998 -67 85.938 C-67 85.278 -67 84.618 -67 83.938 C-74.92 84.433 -74.92 84.433 -83 84.938 C-83.681 87.144 -84.361 89.351 -85.062 91.625 C-87.352 98.998 -89.793 106.315 -92.263 113.63 C-94.888 121.467 -97.289 129.365 -99.603 137.299 C-103.08 149.018 -103.08 149.018 -106 151.938 C-108.339 151.65 -110.674 151.318 -113 150.938 C-115.779 142.907 -118.174 134.847 -120.312 126.625 C-122.546 118.174 -124.904 109.785 -127.5 101.438 C-130.296 92.428 -132.806 83.367 -135.219 74.249 C-138.902 60.409 -142.962 46.677 -147 32.938 C-148.572 37.392 -150.134 41.851 -151.688 46.312 C-151.917 46.971 -152.147 47.63 -152.384 48.309 C-155.406 57.006 -158.273 65.705 -160.466 74.656 C-162.167 81.382 -162.167 81.382 -165 83.938 C-168.105 84.539 -171.183 84.442 -174.337 84.392 C-175.293 84.392 -176.249 84.393 -177.235 84.393 C-180.4 84.391 -183.565 84.359 -186.73 84.328 C-188.923 84.321 -191.116 84.315 -193.309 84.311 C-199.085 84.296 -204.86 84.256 -210.635 84.212 C-216.527 84.171 -222.419 84.153 -228.311 84.133 C-239.874 84.09 -251.437 84.022 -263 83.938 C-265.3 79.825 -265.306 76.12 -265.25 71.5 C-265.243 70.697 -265.236 69.893 -265.229 69.066 C-264.766 42.067 -253.315 20.251 -235 0.938 C-234.294 0.183 -233.587 -0.571 -232.859 -1.348 C-231 -3.062 -231 -3.062 -229 -3.062 C-229 -3.722 -229 -4.382 -229 -5.062 C-226.618 -6.885 -224.238 -8.583 -221.75 -10.25 C-221.013 -10.746 -220.277 -11.242 -219.518 -11.753 C-217.353 -13.201 -215.178 -14.634 -213 -16.062 C-212.023 -16.711 -211.046 -17.359 -210.039 -18.027 C-148.725 -56.236 -53.516 -48.801 0 0 Z M-197 -12.062 C-198.072 -11.553 -199.145 -11.044 -200.25 -10.52 C-222.232 0.391 -241.597 20.422 -250.191 43.531 C-252.467 50.302 -253.238 56.833 -253.688 63.938 C-253.736 64.705 -253.785 65.472 -253.835 66.262 C-253.934 68.152 -253.973 70.045 -254 71.938 C-252.28 73.657 -250.091 73.057 -247.799 73.062 C-246.682 73.057 -246.682 73.057 -245.543 73.051 C-244.762 73.051 -243.982 73.051 -243.178 73.051 C-240.586 73.051 -237.994 73.043 -235.402 73.035 C-233.61 73.033 -231.818 73.032 -230.026 73.031 C-225.299 73.027 -220.573 73.017 -215.846 73.006 C-211.027 72.996 -206.208 72.991 -201.389 72.986 C-191.926 72.976 -182.463 72.959 -173 72.938 C-170.364 67.249 -168.082 61.575 -166.195 55.598 C-165.949 54.832 -165.702 54.066 -165.448 53.277 C-164.669 50.853 -163.897 48.427 -163.125 46 C-162.362 43.616 -161.598 41.233 -160.833 38.85 C-160.326 37.27 -159.82 35.689 -159.315 34.108 C-157.998 29.997 -156.657 25.896 -155.28 21.804 C-154.862 20.563 -154.862 20.563 -154.436 19.296 C-153.901 17.711 -153.363 16.127 -152.822 14.544 C-151.477 10.824 -151.477 10.824 -151 6.938 C-148.69 6.938 -146.38 6.938 -144 6.938 C-141.006 13.313 -139.193 19.913 -137.312 26.688 C-136.603 29.21 -135.892 31.732 -135.18 34.254 C-134.909 35.215 -134.909 35.215 -134.632 36.195 C-132.797 42.691 -130.871 49.158 -128.938 55.625 C-126.351 64.29 -123.851 72.973 -121.438 81.688 C-118.615 91.878 -115.596 101.998 -112.48 112.102 C-111.269 116.033 -110.112 119.976 -109 123.938 C-106.603 123.021 -106.603 123.021 -105.735 119.618 C-105.256 118.137 -104.785 116.654 -104.32 115.168 C-104.066 114.377 -103.812 113.585 -103.551 112.77 C-102.735 110.224 -101.93 107.675 -101.125 105.125 C-100.591 103.448 -100.055 101.772 -99.52 100.096 C-98.736 97.646 -97.954 95.195 -97.175 92.744 C-95.174 86.455 -93.114 80.189 -91 73.938 C-90.38 73.912 -89.759 73.887 -89.12 73.862 C-86.309 73.746 -83.498 73.623 -80.688 73.5 C-79.711 73.461 -78.735 73.421 -77.729 73.381 C-76.791 73.339 -75.853 73.297 -74.887 73.254 C-74.023 73.217 -73.159 73.181 -72.268 73.143 C-69.835 73.01 -69.835 73.01 -67 71.938 C-66.196 70.968 -65.391 69.999 -64.562 69 C-61.806 65.706 -60.079 64.263 -55.852 63.602 C-50.395 63.506 -47.313 64.271 -43 67.938 C-42.67 68.597 -42.34 69.257 -42 69.938 C-41.34 69.938 -40.68 69.938 -40 69.938 C-40 70.597 -40 71.257 -40 71.938 C-36.872 72.98 -34.708 73.058 -31.427 73.051 C-30.286 73.051 -29.145 73.051 -27.97 73.051 C-26.738 73.046 -25.507 73.04 -24.238 73.035 C-22.977 73.034 -21.716 73.032 -20.417 73.031 C-17.068 73.026 -13.72 73.017 -10.371 73.006 C-6.952 72.996 -3.534 72.991 -0.115 72.986 C6.59 72.975 13.295 72.959 20 72.938 C20.006 71.17 20.011 69.403 20.014 67.636 C20.017 66.652 20.019 65.667 20.022 64.654 C19.845 42.882 6.934 22.834 -8 7.938 C-12.394 3.898 -17.111 0.352 -22 -3.062 C-22.978 -3.756 -23.957 -4.45 -24.965 -5.164 C-74.013 -37.519 -145.332 -38.542 -197 -12.062 Z " fill="#161616" transform="translate(378,90.0625)"/>
<path d="M0 0 C-0.66 0.66 -1.32 1.32 -2 2 C-4.31 2 -6.62 2 -9 2 C-9 13.22 -9 24.44 -9 36 C-7.35 36 -5.7 36 -4 36 C-4 36.66 -4 37.32 -4 38 C-1.525 37.505 -1.525 37.505 1 37 C4.346 40.853 4.575 43.613 4.414 48.586 C4 51 4 51 1.875 54.062 C-1.337 56.227 -3.139 56.921 -7 57 C-10.805 56.105 -13.608 55.189 -16 52 C-16 51.34 -16 50.68 -16 50 C-17.135 50.016 -18.271 50.031 -19.441 50.048 C-23.651 50.102 -27.86 50.136 -32.071 50.165 C-33.893 50.18 -35.716 50.2 -37.538 50.226 C-40.157 50.263 -42.776 50.28 -45.395 50.293 C-46.21 50.308 -47.026 50.324 -47.866 50.34 C-53.588 50.342 -53.588 50.342 -55.634 48.647 C-57.357 46.57 -58.67 44.344 -60 42 C-60.292 42.827 -60.585 43.655 -60.886 44.507 C-61.976 47.586 -63.069 50.665 -64.163 53.743 C-64.635 55.074 -65.106 56.404 -65.577 57.735 C-66.254 59.653 -66.935 61.569 -67.617 63.484 C-68.026 64.636 -68.434 65.789 -68.855 66.976 C-69.781 69.42 -70.77 71.698 -72 74 C-73.65 74 -75.3 74 -77 74 C-80.522 66.898 -82.607 59.662 -84.562 52 C-86.484 44.571 -88.474 37.248 -91 30 C-93.542 35.623 -95.939 41.276 -98.168 47.031 C-99 49 -99 49 -100 50 C-102.521 50.088 -105.014 50.115 -107.535 50.098 C-108.665 50.096 -108.665 50.096 -109.818 50.093 C-112.233 50.088 -114.648 50.075 -117.062 50.062 C-118.696 50.057 -120.329 50.053 -121.963 50.049 C-125.975 50.038 -129.988 50.021 -134 50 C-134.296 50.624 -134.593 51.248 -134.898 51.891 C-136.302 54.579 -137.302 55.58 -140 57 C-143.854 57.436 -147.296 57.235 -151 56 C-151 55.34 -151 54.68 -151 54 C-151.66 54 -152.32 54 -153 54 C-155.815 49.778 -155.807 45.96 -155 41 C-152.562 37.938 -152.562 37.938 -150 36 C-149.505 35.505 -149.505 35.505 -149 35 C-147.145 34.727 -147.145 34.727 -144.812 34.625 C-144.056 34.576 -143.299 34.527 -142.52 34.477 C-140 35 -140 35 -137.629 37.473 C-132.678 41.92 -125.392 40.788 -119.125 40.812 C-117.755 40.836 -116.385 40.861 -115.016 40.889 C-111.677 40.947 -108.339 40.984 -105 41 C-104.737 40.19 -104.737 40.19 -104.469 39.363 C-102.61 33.7 -100.589 28.12 -98.438 22.562 C-97.982 21.361 -97.982 21.361 -97.518 20.135 C-97.222 19.37 -96.926 18.605 -96.621 17.816 C-96.357 17.13 -96.094 16.444 -95.822 15.737 C-95 14 -95 14 -93 12 C-90.375 11.875 -90.375 11.875 -88 12 C-85.293 17.917 -83.366 23.959 -81.5 30.188 C-81.192 31.206 -80.884 32.225 -80.566 33.274 C-78.695 39.508 -76.953 45.738 -75.508 52.086 C-75.173 53.994 -75.173 53.994 -74 55 C-73.733 54.223 -73.465 53.446 -73.19 52.645 C-71.982 49.138 -70.772 45.631 -69.562 42.125 C-69.142 40.902 -68.721 39.678 -68.287 38.418 C-67.683 36.668 -67.683 36.668 -67.066 34.883 C-66.509 33.265 -66.509 33.265 -65.94 31.614 C-65 29 -65 29 -64 27 C-61.69 27 -59.38 27 -57 27 C-56.185 28.603 -55.373 30.207 -54.562 31.812 C-54.11 32.706 -53.658 33.599 -53.191 34.52 C-52 37 -52 37 -51 40 C-46.25 40.124 -41.5 40.214 -36.748 40.275 C-35.133 40.3 -33.518 40.334 -31.904 40.377 C-29.577 40.438 -27.253 40.466 -24.926 40.488 C-24.208 40.514 -23.49 40.54 -22.75 40.566 C-19.017 40.569 -17.128 40.089 -14.047 37.933 C-11.474 34.246 -11.36 32.055 -11.328 27.582 C-11.315 26.884 -11.303 26.185 -11.289 25.465 C-11.253 23.247 -11.25 21.031 -11.25 18.812 C-11.228 16.584 -11.2 14.356 -11.168 12.127 C-11.142 10.113 -11.133 8.099 -11.126 6.085 C-11 3 -11 3 -10 1 C-6.527 -0.158 -3.639 -0.069 0 0 Z " fill="#1E1E1F" transform="translate(334,230)"/>
<path d="M0 0 C0.784 0.041 1.567 0.083 2.375 0.125 C6.849 10.228 11.376 20.913 10.375 32.125 C9.715 32.125 9.055 32.125 8.375 32.125 C7.88 33.115 7.88 33.115 7.375 34.125 C6.385 34.125 5.395 34.125 4.375 34.125 C2.725 28.845 1.075 23.565 -0.625 18.125 C-3.166 23.752 -5.563 29.399 -7.793 35.156 C-8.625 37.125 -8.625 37.125 -9.625 38.125 C-12.146 38.213 -14.639 38.24 -17.16 38.223 C-18.29 38.221 -18.29 38.221 -19.443 38.218 C-21.858 38.213 -24.273 38.2 -26.688 38.188 C-28.321 38.182 -29.954 38.178 -31.588 38.174 C-35.6 38.163 -39.613 38.146 -43.625 38.125 C-43.921 38.749 -44.218 39.373 -44.523 40.016 C-45.927 42.704 -46.927 43.705 -49.625 45.125 C-53.479 45.561 -56.921 45.36 -60.625 44.125 C-60.625 43.465 -60.625 42.805 -60.625 42.125 C-61.285 42.125 -61.945 42.125 -62.625 42.125 C-65.44 37.903 -65.432 34.085 -64.625 29.125 C-62.188 26.062 -62.188 26.062 -59.625 24.125 C-59.295 23.795 -58.965 23.465 -58.625 23.125 C-56.77 22.852 -56.77 22.852 -54.438 22.75 C-53.302 22.677 -53.302 22.677 -52.145 22.602 C-49.625 23.125 -49.625 23.125 -47.254 25.598 C-42.303 30.045 -35.017 28.913 -28.75 28.938 C-27.38 28.961 -26.01 28.986 -24.641 29.014 C-21.302 29.072 -17.964 29.109 -14.625 29.125 C-14.45 28.585 -14.275 28.045 -14.094 27.488 C-12.235 21.825 -10.214 16.245 -8.062 10.688 C-7.607 9.486 -7.607 9.486 -7.143 8.26 C-6.847 7.495 -6.551 6.73 -6.246 5.941 C-5.982 5.255 -5.719 4.569 -5.447 3.862 C-4.077 0.968 -3.229 0.154 0 0 Z " fill="#161516" transform="translate(243.625,241.875)"/>
<path d="M0 0 C3.708 -0.088 7.416 -0.141 11.125 -0.188 C12.172 -0.213 13.218 -0.238 14.297 -0.264 C19.944 -0.317 24.167 -0.294 29 3 C31.178 5.389 32.023 6.925 31.953 10.184 C31.78 11.732 31.572 13.278 31.324 14.816 C30.902 17.292 30.902 17.292 31 21 C31.474 21.454 31.949 21.908 32.438 22.375 C34.769 24.8 34.87 26.681 35 30 C33.076 35.345 30.065 38.467 25 41 C23.199 41.097 21.394 41.131 19.59 41.133 C17.982 41.135 17.982 41.135 16.342 41.137 C15.218 41.133 14.095 41.129 12.938 41.125 C11.247 41.131 11.247 41.131 9.521 41.137 C7.916 41.135 7.916 41.135 6.277 41.133 C5.29 41.132 4.302 41.131 3.285 41.129 C1 41 1 41 0 40 C-0.089 37.043 -0.115 34.109 -0.098 31.152 C-0.096 30.266 -0.095 29.379 -0.093 28.466 C-0.088 25.623 -0.075 22.78 -0.062 19.938 C-0.057 18.015 -0.053 16.092 -0.049 14.17 C-0.038 9.447 -0.021 4.723 0 0 Z M10 10 C10 11.98 10 13.96 10 16 C11.625 16.054 13.25 16.093 14.875 16.125 C15.78 16.148 16.685 16.171 17.617 16.195 C20.188 16.243 20.188 16.243 22 14 C21.833 11.917 21.833 11.917 21 10 C17.362 8.181 13.758 8.747 10 10 Z M9 26 C8.833 28.5 8.833 28.5 9 31 C10.73 32.73 13.025 32.172 15.375 32.188 C16.352 32.202 17.329 32.216 18.336 32.23 C21.228 32.195 21.228 32.195 24 30 C23.505 27.525 23.505 27.525 23 25 C20.854 24.973 18.708 24.954 16.562 24.938 C14.77 24.92 14.77 24.92 12.941 24.902 C10.111 24.661 10.111 24.661 9 26 Z " fill="#BF5550" transform="translate(243,332)"/>
<path d="M0 0 C1.563 -0.031 1.563 -0.031 3.158 -0.062 C9.772 -0.096 14.293 0.458 19.625 4.688 C22.554 8.541 22.313 13.598 21.812 18.25 C19.79 23.711 19.79 23.711 16.703 25.414 C16.079 25.69 15.455 25.966 14.812 26.25 C15.306 26.998 15.8 27.745 16.309 28.516 C16.949 29.5 17.59 30.485 18.25 31.5 C18.888 32.475 19.526 33.449 20.184 34.453 C21.57 36.834 22.359 38.568 22.812 41.25 C18.95 41.953 15.647 42.191 11.812 41.25 C9.253 38.605 7.508 35.934 5.664 32.754 C4.025 30.021 4.025 30.021 1.086 29.402 C0.336 29.352 -0.415 29.302 -1.188 29.25 C-1.248 30.032 -1.309 30.815 -1.371 31.621 C-1.455 32.633 -1.539 33.645 -1.625 34.688 C-1.747 36.202 -1.747 36.202 -1.871 37.746 C-2.188 40.25 -2.188 40.25 -3.188 41.25 C-5 41.383 -5 41.383 -7.188 41.375 C-7.909 41.378 -8.631 41.38 -9.375 41.383 C-11.188 41.25 -11.188 41.25 -12.188 40.25 C-12.289 37.377 -12.327 34.529 -12.32 31.656 C-12.321 30.794 -12.322 29.933 -12.323 29.045 C-12.324 27.219 -12.322 25.393 -12.318 23.567 C-12.313 20.762 -12.318 17.957 -12.324 15.152 C-12.324 13.383 -12.322 11.613 -12.32 9.844 C-12.322 8.999 -12.324 8.154 -12.326 7.284 C-12.289 -2.041 -8.202 0.04 0 0 Z M-2.188 10.25 C-2.188 13.22 -2.188 16.19 -2.188 19.25 C-0.605 19.304 0.979 19.343 2.562 19.375 C3.444 19.398 4.326 19.421 5.234 19.445 C7.926 19.241 9.512 18.616 11.812 17.25 C11.812 15.27 11.812 13.29 11.812 11.25 C6.938 8.561 3.218 9.434 -2.188 10.25 Z " fill="#161617" transform="translate(86.1875,331.75)"/>
<path d="M0 0 C2.905 -0.336 5.532 -0.473 8.438 -0.438 C9.246 -0.434 10.054 -0.431 10.886 -0.428 C17.478 -0.275 23.055 1.067 29 4 C29 4.66 29 5.32 29 6 C29.598 6.186 30.196 6.371 30.812 6.562 C34.055 8.694 35.104 11.358 36 15 C36.734 21.755 36.2 27 33 33 C32.34 33 31.68 33 31 33 C31 33.66 31 34.32 31 35 C26.699 39.474 21.772 41.133 15.695 41.426 C5.183 41.575 5.183 41.575 0 41 C-2.048 38.952 -1.305 34.736 -1.387 31.914 C-1.425 30.695 -1.425 30.695 -1.464 29.451 C-1.516 27.728 -1.566 26.005 -1.613 24.281 C-1.687 21.643 -1.778 19.005 -1.869 16.367 C-1.918 14.695 -1.965 13.023 -2.012 11.352 C-2.055 10.165 -2.055 10.165 -2.1 8.955 C-2.189 5.069 -2.212 3.318 0 0 Z M9 10 C9 17.26 9 24.52 9 32 C15.667 32 18.536 31.666 23.645 27.734 C26.036 24.674 25.46 21.336 25.352 17.602 C25.172 14.859 25.172 14.859 23.312 12.438 C18.785 9.623 14.135 7.433 9 10 Z " fill="#C33F37" transform="translate(323,332)"/>
<path d="M0 0 C8.209 0.125 14.198 1.352 20.376 7.004 C23.621 12.215 25.524 16.812 25.314 23.004 C23.544 29.705 20.645 34.527 14.783 38.415 C9.112 41.563 4.336 41.809 -2.061 41.567 C-2.979 41.549 -3.897 41.531 -4.842 41.512 C-7.083 41.466 -9.321 41.4 -11.561 41.317 C-12.885 37.316 -12.705 33.249 -12.694 29.086 C-12.695 27.9 -12.695 27.9 -12.697 26.689 C-12.697 25.023 -12.696 23.356 -12.691 21.689 C-12.686 19.128 -12.691 16.567 -12.698 14.006 C-12.697 12.387 -12.696 10.768 -12.694 9.149 C-12.696 8.379 -12.698 7.609 -12.7 6.816 C-12.66 -2.075 -7.503 0.013 0 0 Z M-2.561 10.317 C-2.59 13.796 -2.608 17.275 -2.624 20.754 C-2.632 21.748 -2.64 22.741 -2.649 23.764 C-2.652 24.708 -2.655 25.653 -2.659 26.625 C-2.664 27.5 -2.669 28.375 -2.675 29.276 C-2.789 31.311 -2.789 31.311 -1.561 32.317 C2.988 32.579 6.323 32.312 10.439 30.317 C10.439 29.657 10.439 28.997 10.439 28.317 C11.099 28.317 11.759 28.317 12.439 28.317 C14.675 23.976 14.47 21.042 13.439 16.317 C12.454 13.609 11.958 12.576 9.345 11.27 C8.551 11.038 7.757 10.806 6.939 10.567 C6.145 10.325 5.351 10.082 4.533 9.833 C1.548 9.098 0.441 9.316 -2.561 10.317 Z " fill="#BC5854" transform="translate(375.56103515625,331.68310546875)"/>
<path d="M0 0 C1.257 0.003 2.514 0.006 3.809 0.01 C5.127 0.018 6.446 0.027 7.805 0.035 C9.145 0.04 10.484 0.045 11.824 0.049 C15.109 0.061 18.395 0.077 21.68 0.098 C23.171 3.08 22.799 5.814 22.68 9.098 C21.68 10.098 21.68 10.098 19.73 10.211 C18.898 10.206 18.065 10.201 17.207 10.195 C16.308 10.192 15.409 10.189 14.482 10.186 C13.537 10.177 12.591 10.169 11.617 10.16 C10.668 10.156 9.718 10.151 8.74 10.146 C6.387 10.135 4.033 10.118 1.68 10.098 C1.68 12.078 1.68 14.058 1.68 16.098 C7.95 16.098 14.22 16.098 20.68 16.098 C20.68 19.068 20.68 22.038 20.68 25.098 C14.41 25.098 8.14 25.098 1.68 25.098 C1.68 27.408 1.68 29.718 1.68 32.098 C8.61 32.098 15.54 32.098 22.68 32.098 C23.68 39.098 23.68 39.098 22.68 41.098 C12.45 41.098 2.22 41.098 -8.32 41.098 C-8.32 27.898 -8.32 14.698 -8.32 1.098 C-5.502 -0.311 -3.148 -0.014 0 0 Z " fill="#050506" transform="translate(121.3203125,331.90234375)"/>
<path d="M0 0 C1.236 0.017 1.236 0.017 2.496 0.035 C3.322 0.044 4.149 0.053 5 0.062 C5.638 0.074 6.276 0.086 6.934 0.098 C8.241 2.712 8.077 4.697 8.109 7.621 C8.133 8.725 8.157 9.828 8.182 10.965 C8.224 13.295 8.256 15.626 8.275 17.957 C8.303 19.063 8.331 20.169 8.359 21.309 C8.374 22.322 8.389 23.336 8.404 24.38 C9.072 27.807 10.146 29.04 12.934 31.098 C16.628 30.952 16.628 30.952 19.934 30.098 C21.613 26.41 22.208 23.435 22.312 19.395 C22.347 18.332 22.381 17.27 22.416 16.176 C22.442 15.077 22.469 13.979 22.496 12.848 C22.556 10.655 22.619 8.462 22.688 6.27 C22.711 5.301 22.735 4.333 22.76 3.335 C22.934 1.098 22.934 1.098 23.934 0.098 C25.746 -0.035 25.746 -0.035 27.934 -0.027 C28.655 -0.03 29.377 -0.033 30.121 -0.035 C31.934 0.098 31.934 0.098 32.934 1.098 C33.246 5.444 33.212 9.804 33.246 14.16 C33.275 15.376 33.304 16.593 33.334 17.846 C33.389 25.63 33.047 31.703 27.486 37.645 C22.801 41.842 19.206 42.409 13.023 42.316 C8.669 41.861 5.226 39.996 1.684 37.535 C-3.583 30.199 -3.486 21.215 -3.316 12.535 C-3.311 11.444 -3.306 10.353 -3.301 9.229 C-3.21 0.152 -3.21 0.152 0 0 Z " fill="#BF6461" transform="translate(283.06640625,331.90234375)"/>
<path d="M0 0 C2.027 0.074 2.027 0.074 5.965 0.762 C8.541 4.275 10.121 8.236 11.812 12.234 C12.07 12.839 12.327 13.444 12.592 14.067 C13.408 15.985 14.218 17.904 15.027 19.824 C15.841 21.747 16.657 23.67 17.473 25.592 C18.212 27.332 18.948 29.075 19.684 30.817 C20.871 33.665 20.871 33.665 22.135 35.908 C22.965 37.762 22.965 37.762 22.965 41.762 C19.665 41.762 16.365 41.762 12.965 41.762 C11.645 39.122 10.325 36.482 8.965 33.762 C4.216 33.299 -0.307 33.026 -5.035 33.762 C-6.936 35.723 -7.73 37.493 -8.816 39.98 C-10.035 41.762 -10.035 41.762 -12.316 42.293 C-14.604 42.265 -16.777 42.116 -19.035 41.762 C-18.434 37.181 -17.212 33.31 -15.453 29.043 C-15.198 28.422 -14.942 27.801 -14.679 27.161 C-14.14 25.856 -13.598 24.551 -13.052 23.249 C-12.227 21.271 -11.414 19.288 -10.604 17.305 C-10.075 16.03 -9.546 14.755 -9.016 13.48 C-8.302 11.762 -8.302 11.762 -7.575 10.01 C-3.44 1.288 -3.44 1.288 0 0 Z M0.965 14.762 C-0.025 17.732 -1.015 20.702 -2.035 23.762 C0.275 23.762 2.585 23.762 4.965 23.762 C3.975 20.792 2.985 17.822 1.965 14.762 C1.635 14.762 1.305 14.762 0.965 14.762 Z " fill="#161617" transform="translate(165.03515625,331.23828125)"/>
<path d="M0 0 C2.831 1.379 4.612 2.866 7 5 C7 5.66 7 6.32 7 7 C7.66 7 8.32 7 9 7 C9 7.66 9 8.32 9 9 C9.99 9.33 10.98 9.66 12 10 C11.01 10 10.02 10 9 10 C9.195 11.195 9.195 11.195 9.395 12.414 C10.496 20.872 10.496 20.872 9.094 24.062 C6.23 27.555 3.088 29.704 -1.367 30.336 C-8.259 30.443 -11.626 28.924 -16.875 24.375 C-18 23 -18 23 -18 21 C-26.415 21.495 -26.415 21.495 -35 22 C-34.67 21.01 -34.34 20.02 -34 19 C-29.38 19 -24.76 19 -20 19 C-20 16.36 -20 13.72 -20 11 C-26.93 11 -33.86 11 -41 11 C-41 11.66 -41 12.32 -41 13 C-41.66 13 -42.32 13 -43 13 C-42.67 12.01 -42.34 11.02 -42 10 C-34.08 9.67 -26.16 9.34 -18 9 C-17.34 7.68 -16.68 6.36 -16 5 C-10.722 0.382 -6.977 -1.045 0 0 Z " fill="#CD3B30" transform="translate(329,153)"/>
<path d="M0 0 C3.478 -0.557 6.544 -0.763 10 0 C14.053 3.839 16.031 8.868 18 14 C21.713 10.837 23.704 7.172 25.949 2.926 C27 1 27 1 28 0 C29.686 -0.072 31.375 -0.084 33.062 -0.062 C33.982 -0.053 34.901 -0.044 35.848 -0.035 C36.558 -0.024 37.268 -0.012 38 0 C37.727 5.314 35.585 8.412 32.629 12.621 C27.793 19.683 24.99 25.588 24.438 34.188 C24.354 35.46 24.27 36.732 24.184 38.043 C24.093 39.507 24.093 39.507 24 41 C21.03 41 18.06 41 15 41 C13.599 38.199 13.923 35.754 13.875 32.625 C13.146 21.486 6.762 13.687 0.188 5.059 C-0.204 4.379 -0.596 3.7 -1 3 C-0.67 2.01 -0.34 1.02 0 0 Z " fill="#BE3B35" transform="translate(399,332)"/>
<path d="M0 0 C2.97 0 5.94 0 9 0 C10.461 2.922 10.111 5.499 10.098 8.758 C10.096 9.421 10.095 10.084 10.093 10.767 C10.088 12.886 10.075 15.006 10.062 17.125 C10.057 18.561 10.053 19.997 10.049 21.434 C10.039 24.956 10.019 28.478 10 32 C16.27 32 22.54 32 29 32 C29 34.64 29 37.28 29 40 C28 41 28 41 25.316 41.114 C24.148 41.108 22.981 41.103 21.777 41.098 C20.643 41.095 19.508 41.093 18.34 41.09 C16.161 41.076 16.161 41.076 13.938 41.062 C7.038 41.032 7.038 41.032 0 41 C0 27.47 0 13.94 0 0 Z " fill="#1C1C1D" transform="translate(191,332)"/>
<path d="M0 0 C3.486 -0.062 6.971 -0.124 10.562 -0.188 C12.19 -0.228 12.19 -0.228 13.85 -0.27 C19.708 -0.32 23.814 0.229 29 3 C29.224 4.414 29.428 5.832 29.625 7.25 C29.799 8.433 29.799 8.433 29.977 9.641 C30.003 12.322 29.366 13.727 28 16 C26.68 16 25.36 16 24 16 C24 15.34 24 14.68 24 14 C23.34 14 22.68 14 22 14 C21.34 11.69 20.68 9.38 20 7 C15.38 7 10.76 7 6 7 C6 9.97 6 12.94 6 16 C6.976 16 7.952 16 8.957 16 C13.638 16 18.319 16 23 16 C23 16.99 23 17.98 23 19 C24.65 19.33 26.3 19.66 28 20 C28.366 21.414 28.717 22.831 29.062 24.25 C29.358 25.433 29.358 25.433 29.66 26.641 C30.015 29.104 29.769 30.656 29 33 C28.01 33 27.02 33 26 33 C26 33.99 26 34.98 26 36 C24.35 36 22.7 36 21 36 C20.67 35.34 20.34 34.68 20 34 C17.414 33.532 17.414 33.532 14.438 33.375 C13.426 33.3 12.414 33.225 11.371 33.148 C10.589 33.099 9.806 33.05 9 33 C9 32.67 9 32.34 9 32 C9.664 31.974 10.328 31.948 11.012 31.922 C15.328 31.645 18.334 31.386 22.125 29.188 C24.434 26.974 24.434 26.974 24 23 C23.34 22.67 22.68 22.34 22 22 C22 21.34 22 20.68 22 20 C16.39 20 10.78 20 5 20 C5 20.66 5 21.32 5 22 C3.35 22.66 1.7 23.32 0 24 C0 16.08 0 8.16 0 0 Z " fill="#BD3B35" transform="translate(245,334)"/>
<path d="M0 0 C-0.66 0.66 -1.32 1.32 -2 2 C-4.31 2 -6.62 2 -9 2 C-9 13.22 -9 24.44 -9 36 C-7.35 36 -5.7 36 -4 36 C-4 36.66 -4 37.32 -4 38 C-1.525 37.505 -1.525 37.505 1 37 C4.346 40.853 4.575 43.613 4.414 48.586 C4 51 4 51 1.875 54.062 C-1.337 56.227 -3.139 56.921 -7 57 C-10.805 56.105 -13.608 55.189 -16 52 C-16 51.34 -16 50.68 -16 50 C-28.54 50 -41.08 50 -54 50 C-54 49.67 -54 49.34 -54 49 C-41.46 49 -28.92 49 -16 49 C-16.495 46.03 -16.495 46.03 -17 43 C-28.55 42.67 -40.1 42.34 -52 42 C-52.495 39.525 -52.495 39.525 -53 37 C-52.34 37.99 -51.68 38.98 -51 40 C-48.434 40.33 -46.114 40.468 -43.543 40.469 C-42.433 40.48 -42.433 40.48 -41.301 40.492 C-39.733 40.503 -38.165 40.505 -36.597 40.501 C-34.206 40.5 -31.818 40.542 -29.428 40.586 C-27.904 40.591 -26.38 40.594 -24.855 40.594 C-23.788 40.618 -23.788 40.618 -22.699 40.643 C-18.997 40.592 -17.101 40.071 -14.051 37.927 C-11.47 34.244 -11.36 32.056 -11.328 27.582 C-11.309 26.534 -11.309 26.534 -11.289 25.465 C-11.253 23.247 -11.25 21.031 -11.25 18.812 C-11.228 16.584 -11.2 14.356 -11.168 12.127 C-11.142 10.113 -11.133 8.099 -11.126 6.085 C-11 3 -11 3 -10 1 C-6.527 -0.158 -3.639 -0.069 0 0 Z " fill="#7AA56A" transform="translate(334,230)"/>
<path d="M0 0 C2.905 -0.336 5.532 -0.473 8.438 -0.438 C9.246 -0.434 10.054 -0.431 10.886 -0.428 C17.478 -0.275 23.055 1.067 29 4 C29 4.66 29 5.32 29 6 C29.598 6.186 30.196 6.371 30.812 6.562 C34.052 8.691 35.117 11.357 36 15 C36.878 24.683 36.878 24.683 34 29 C34 24.05 34 19.1 34 14 C32.68 14 31.36 14 30 14 C30 13.34 30 12.68 30 12 C29.01 12.495 29.01 12.495 28 13 C27.524 15.706 27.159 18.336 26.875 21.062 C26.789 21.821 26.702 22.58 26.613 23.361 C26.401 25.24 26.199 27.12 26 29 C23.525 29.495 23.525 29.495 21 30 C21 30.66 21 31.32 21 32 C18.235 33.382 15.954 33.095 12.875 33.062 C11.779 33.053 10.684 33.044 9.555 33.035 C8.712 33.024 7.869 33.012 7 33 C6.971 28.854 6.953 24.708 6.938 20.562 C6.929 19.378 6.921 18.194 6.912 16.975 C6.909 15.85 6.906 14.725 6.902 13.566 C6.897 12.524 6.892 11.482 6.886 10.408 C7 8 7 8 8 7 C10.186 6.927 12.375 6.916 14.562 6.938 C16.359 6.951 16.359 6.951 18.191 6.965 C19.118 6.976 20.045 6.988 21 7 C20.34 5.68 19.68 4.36 19 3 C13.06 2.67 7.12 2.34 1 2 C1 14.21 1 26.42 1 39 C8.92 38.67 16.84 38.34 25 38 C20.498 41.377 20.498 41.377 16.051 41.328 C14.656 41.32 14.656 41.32 13.232 41.312 C11.787 41.282 11.787 41.282 10.312 41.25 C9.337 41.245 8.362 41.24 7.357 41.234 C0.154 41.154 0.154 41.154 -1 40 C-1.185 37.298 -1.308 34.62 -1.387 31.914 C-1.425 30.695 -1.425 30.695 -1.464 29.451 C-1.516 27.728 -1.566 26.005 -1.613 24.281 C-1.687 21.643 -1.778 19.005 -1.869 16.367 C-1.918 14.695 -1.965 13.023 -2.012 11.352 C-2.055 10.165 -2.055 10.165 -2.1 8.955 C-2.189 5.069 -2.212 3.318 0 0 Z M9 10 C9 17.26 9 24.52 9 32 C15.667 32 18.536 31.666 23.645 27.734 C26.036 24.674 25.46 21.336 25.352 17.602 C25.172 14.859 25.172 14.859 23.312 12.438 C18.785 9.623 14.135 7.433 9 10 Z " fill="#BF5654" transform="translate(323,332)"/>
<path d="M0 0 C1.135 -0.073 1.135 -0.073 2.293 -0.148 C4.812 0.375 4.812 0.375 7.184 2.848 C12.135 7.295 19.42 6.163 25.688 6.188 C27.057 6.211 28.427 6.236 29.797 6.264 C33.136 6.322 36.473 6.359 39.812 6.375 C39.812 6.705 39.812 7.035 39.812 7.375 C29.912 7.375 20.012 7.375 9.812 7.375 C10.142 9.355 10.472 11.335 10.812 13.375 C18.403 13.705 25.993 14.035 33.812 14.375 C33.812 14.705 33.812 15.035 33.812 15.375 C26.222 15.375 18.632 15.375 10.812 15.375 C10.153 16.695 9.493 18.015 8.812 19.375 C6.947 21.384 5.624 22.283 2.879 22.594 C-0.386 22.642 -3.083 22.41 -6.188 21.375 C-6.188 20.715 -6.188 20.055 -6.188 19.375 C-6.847 19.375 -7.507 19.375 -8.188 19.375 C-11.002 15.153 -10.994 11.335 -10.188 6.375 C-7.75 3.312 -7.75 3.312 -5.188 1.375 C-3.638 -0.175 -2.151 0.094 0 0 Z " fill="#CC3F36" transform="translate(189.1875,264.625)"/>
<path d="M0 0 C1.653 0.017 1.653 0.017 3.34 0.035 C4.997 0.049 4.997 0.049 6.688 0.062 C7.542 0.074 8.397 0.086 9.277 0.098 C9.863 1.973 9.863 1.973 10.277 4.098 C8.902 6.098 8.902 6.098 7.277 8.098 C6.572 10.245 6.572 10.245 6.277 12.098 C8.752 12.593 8.752 12.593 11.277 13.098 C9.8 17.394 7.617 20.656 4.902 24.285 C3.746 25.853 3.746 25.853 2.566 27.453 C0.485 29.857 -0.793 31.008 -3.723 32.098 C-4.796 28.826 -4.615 26.668 -3.785 23.348 C-3.591 22.548 -3.396 21.749 -3.195 20.926 C-3.039 20.322 -2.883 19.719 -2.723 19.098 C-3.527 19.118 -4.331 19.139 -5.16 19.16 C-7.723 19.098 -7.723 19.098 -8.723 18.098 C-8.361 12.429 -6.77 0.243 0 0 Z " fill="#C24A43" transform="translate(229.72265625,311.90234375)"/>
<path d="M0 0 C2.991 -0.062 5.981 -0.124 9.062 -0.188 C9.991 -0.215 10.919 -0.242 11.875 -0.27 C17.371 -0.325 21.11 0.472 26 3 C26 3.99 26 4.98 26 6 C18.545 7.734 14.45 6.3 6 5 C6 13.91 6 22.82 6 32 C5.01 32.495 5.01 32.495 4 33 C3.67 33.99 3.34 34.98 3 36 C5.97 36 8.94 36 12 36 C12 36.33 12 36.66 12 37 C8.04 37 4.08 37 0 37 C0 24.79 0 12.58 0 0 Z " fill="#BF403B" transform="translate(365,334)"/>
<path d="M0 0 C8.209 0.125 14.198 1.352 20.376 7.004 C23.621 12.215 25.524 16.812 25.314 23.004 C23.851 28.541 21.795 32.542 17.439 36.317 C17.109 36.317 16.779 36.317 16.439 36.317 C16.439 34.667 16.439 33.017 16.439 31.317 C17.429 30.987 18.419 30.657 19.439 30.317 C20.172 28.302 20.172 28.302 20.439 26.317 C21.099 26.317 21.759 26.317 22.439 26.317 C22.439 23.677 22.439 21.037 22.439 18.317 C21.779 18.317 21.119 18.317 20.439 18.317 C19.944 14.852 19.944 14.852 19.439 11.317 C18.119 10.987 16.799 10.657 15.439 10.317 C15.769 11.101 16.099 11.884 16.439 12.692 C17.713 17.311 17.608 21.559 17.439 26.317 C14.964 26.812 14.964 26.812 12.439 27.317 C12.582 26.447 12.582 26.447 12.728 25.559 C13.438 20.556 13.514 17.077 11.439 12.317 C9.669 11.98 7.898 11.648 6.126 11.317 C5.14 11.131 4.154 10.946 3.138 10.754 C0.401 10.237 0.401 10.237 -2.561 10.317 C-2.561 9.657 -2.561 8.997 -2.561 8.317 C3.379 8.317 9.319 8.317 15.439 8.317 C15.109 7.327 14.779 6.337 14.439 5.317 C9.221 2.834 3.732 2.887 -1.936 2.692 C-5.112 2.568 -8.289 2.444 -11.561 2.317 C-11.561 13.867 -11.561 25.417 -11.561 37.317 C-11.891 37.317 -12.221 37.317 -12.561 37.317 C-12.586 32.208 -12.604 27.1 -12.616 21.991 C-12.621 20.252 -12.628 18.512 -12.636 16.773 C-12.649 14.279 -12.654 11.784 -12.659 9.29 C-12.664 8.507 -12.669 7.725 -12.674 6.919 C-12.675 5.051 -12.623 3.184 -12.561 1.317 C-10.151 -1.093 -3.39 0.006 0 0 Z " fill="#BD4644" transform="translate(375.56103515625,331.68310546875)"/>
<path d="M0 0 C1.289 2.579 1.129 4.455 1.133 7.34 C1.134 8.403 1.135 9.466 1.137 10.561 C1.133 11.675 1.129 12.789 1.125 13.938 C1.129 15.048 1.133 16.159 1.137 17.303 C1.135 18.367 1.134 19.431 1.133 20.527 C1.132 21.504 1.131 22.481 1.129 23.488 C1 26 1 26 0 29 C-6.152 29.098 -6.152 29.098 -8 29 C-10.657 26.343 -9.235 18.639 -9.25 15.062 C-9.281 13.234 -9.281 13.234 -9.312 11.369 C-9.318 10.207 -9.323 9.045 -9.328 7.848 C-9.337 6.775 -9.347 5.703 -9.356 4.598 C-9.239 3.741 -9.121 2.883 -9 2 C-5.565 -0.29 -4.015 -0.178 0 0 Z " fill="#252427" transform="translate(234,344)"/>
<path d="M0 0 C2.64 0 5.28 0 8 0 C7.67 0.99 7.34 1.98 7 3 C6.345 3.286 5.69 3.572 5.016 3.867 C2.76 4.842 2.76 4.842 2.172 7.383 C2.033 8.288 1.893 9.193 1.75 10.125 C1.6 11.035 1.451 11.945 1.297 12.883 C1.199 13.581 1.101 14.28 1 15 C0.01 15 -0.98 15 -2 15 C-2 15.66 -2 16.32 -2 17 C-2.99 17 -3.98 17 -5 17 C-5.33 23.6 -5.66 30.2 -6 37 C-7.98 37 -9.96 37 -12 37 C-12.091 35.355 -12.091 35.355 -12.184 33.676 C-12.268 32.221 -12.353 30.767 -12.438 29.312 C-12.477 28.591 -12.516 27.87 -12.557 27.127 C-12.782 23.333 -13.128 19.713 -14 16 C-11.69 16 -9.38 16 -7 16 C-6.773 15.216 -6.546 14.433 -6.312 13.625 C-4.593 8.877 -2.319 4.479 0 0 Z " fill="#C03C34" transform="translate(427,334)"/>
<path d="M0 0 C3.521 -0.088 7.041 -0.141 10.562 -0.188 C11.553 -0.213 12.544 -0.238 13.564 -0.264 C19.531 -0.323 23.715 0.176 29 3 C29.224 4.414 29.428 5.832 29.625 7.25 C29.799 8.433 29.799 8.433 29.977 9.641 C30.003 12.322 29.366 13.727 28 16 C26.68 16 25.36 16 24 16 C24 15.34 24 14.68 24 14 C23.34 14 22.68 14 22 14 C21.34 11.69 20.68 9.38 20 7 C15.38 7 10.76 7 6 7 C6 9.64 6 12.28 6 15 C5.67 15 5.34 15 5 15 C4.67 12.03 4.34 9.06 4 6 C7.435 3.71 8.985 3.822 13 4 C13 3.01 13 2.02 13 1 C6.565 1.495 6.565 1.495 0 2 C0 1.34 0 0.68 0 0 Z " fill="#B93B38" transform="translate(245,334)"/>
<path d="M0 0 C0.779 0.819 1.557 1.637 2.359 2.48 C7.323 6.914 14.605 5.788 20.875 5.812 C22.245 5.836 23.615 5.861 24.984 5.889 C28.323 5.947 31.661 5.984 35 6 C35 6.33 35 6.66 35 7 C25.1 7 15.2 7 5 7 C5.33 8.98 5.66 10.96 6 13 C13.59 13.33 21.18 13.66 29 14 C29 14.33 29 14.66 29 15 C21.41 15 13.82 15 6 15 C5.34 16.32 4.68 17.64 4 19 C2.135 21.009 0.812 21.908 -1.934 22.219 C-5.198 22.267 -7.895 22.035 -11 21 C-11 20.34 -11 19.68 -11 19 C-11.66 19 -12.32 19 -13 19 C-13 18.34 -13 17.68 -13 17 C-12.01 17 -11.02 17 -10 17 C-9.67 17.66 -9.34 18.32 -9 19 C-6.644 19.468 -6.644 19.468 -3.938 19.625 C-3.018 19.7 -2.099 19.775 -1.152 19.852 C-0.442 19.901 0.268 19.95 1 20 C1 19.01 1 18.02 1 17 C1.66 17 2.32 17 3 17 C3.081 15.563 3.139 14.126 3.188 12.688 C3.222 11.887 3.257 11.086 3.293 10.262 C3.174 7.948 3.174 7.948 1.73 6.223 C-1.843 3.698 -6.888 4.815 -11 5.5 C-11.66 5.665 -12.32 5.83 -13 6 C-13 6.66 -13 7.32 -13 8 C-13.66 8 -14.32 8 -15 8 C-14.134 5.331 -13.278 3.323 -11.438 1.188 C-7.733 -0.617 -4.01 -0.986 0 0 Z " fill="#CB8B8B" transform="translate(194,265)"/>
<path d="M0 0 C1.257 0.003 2.514 0.006 3.809 0.01 C5.127 0.018 6.446 0.027 7.805 0.035 C9.145 0.04 10.484 0.045 11.824 0.049 C15.109 0.061 18.395 0.077 21.68 0.098 C21.68 0.758 21.68 1.418 21.68 2.098 C12.11 2.098 2.54 2.098 -7.32 2.098 C-7.32 14.638 -7.32 27.178 -7.32 40.098 C2.25 40.098 11.82 40.098 21.68 40.098 C21.68 37.788 21.68 35.478 21.68 33.098 C10.79 33.593 10.79 33.593 -0.32 34.098 C-0.32 31.128 -0.32 28.158 -0.32 25.098 C0.34 25.098 1 25.098 1.68 25.098 C1.68 27.408 1.68 29.718 1.68 32.098 C8.61 32.098 15.54 32.098 22.68 32.098 C23.68 39.098 23.68 39.098 22.68 41.098 C12.45 41.098 2.22 41.098 -8.32 41.098 C-8.32 27.898 -8.32 14.698 -8.32 1.098 C-5.502 -0.311 -3.148 -0.014 0 0 Z " fill="#767678" transform="translate(121.3203125,331.90234375)"/>
<path d="M0 0 C3.478 -0.557 6.544 -0.763 10 0 C14.053 3.839 16.031 8.868 18 14 C21.713 10.837 23.704 7.172 25.949 2.926 C27 1 27 1 28 0 C29.686 -0.072 31.375 -0.084 33.062 -0.062 C33.982 -0.053 34.901 -0.044 35.848 -0.035 C36.558 -0.024 37.268 -0.012 38 0 C37.653 6.765 33.685 12.315 29 17 C29.087 15.395 29.196 13.791 29.312 12.188 C29.371 11.294 29.429 10.401 29.488 9.48 C30.067 6.673 30.722 5.693 33 4 C33.66 4 34.32 4 35 4 C35.33 3.34 35.66 2.68 36 2 C31.779 1.521 31.779 1.521 28 3 C25.087 7.438 23.022 12.103 21 17 C17.179 16.241 15.7 14.79 13 12 C12.34 12 11.68 12 11 12 C11 11.34 11 10.68 11 10 C10.34 10 9.68 10 9 10 C9.33 7.69 9.66 5.38 10 3 C7.03 2.67 4.06 2.34 1 2 C0.67 2.66 0.34 3.32 0 4 C0 2.68 0 1.36 0 0 Z " fill="#C57470" transform="translate(399,332)"/>
<path d="M0 0 C1.98 0 3.96 0 6 0 C6.087 4.292 6.14 8.583 6.188 12.875 C6.213 14.098 6.238 15.322 6.264 16.582 C6.278 18.332 6.278 18.332 6.293 20.117 C6.309 21.196 6.324 22.275 6.341 23.386 C6.228 24.249 6.116 25.111 6 26 C5.01 26.66 4.02 27.32 3 28 C2.67 28.99 2.34 29.98 2 31 C1.01 30.67 0.02 30.34 -1 30 C-0.67 20.1 -0.34 10.2 0 0 Z " fill="#BD3E39" transform="translate(308,334)"/>
<path d="M0 0 C0.99 0 1.98 0 3 0 C3.671 1.456 4.337 2.915 5 4.375 C5.557 5.593 5.557 5.593 6.125 6.836 C7 9 7 9 7 11 C7.99 11 8.98 11 10 11 C10.99 12.485 10.99 12.485 12 14 C13.155 14.165 14.31 14.33 15.5 14.5 C16.655 14.665 17.81 14.83 19 15 C19.99 16.485 19.99 16.485 21 18 C17.686 20.209 16.655 20.225 12.812 20.125 C11.911 20.107 11.01 20.089 10.082 20.07 C9.395 20.047 8.708 20.024 8 20 C8 19.34 8 18.68 8 18 C7.01 17.67 6.02 17.34 5 17 C4.01 16.67 3.02 16.34 2 16 C-0.123 10.636 -0.233 5.716 0 0 Z " fill="#BF3D37" transform="translate(283,352)"/>
<path d="M0 0 C2.64 0 5.28 0 8 0 C9.765 3.088 10 4.233 10 8 C10.66 8 11.32 8 12 8 C12 8.66 12 9.32 12 10 C12.99 10 13.98 10 15 10 C17.982 12.982 19.668 15.005 21 19 C21 22.841 20.092 24.792 18 28 C15.5 30.438 15.5 30.438 13 32 C12.01 31.67 11.02 31.34 10 31 C11.32 30.67 12.64 30.34 14 30 C14 29.01 14 28.02 14 27 C14.99 27 15.98 27 17 27 C16.858 25.583 16.711 24.166 16.562 22.75 C16.481 21.961 16.4 21.172 16.316 20.359 C16.024 18.176 15.579 16.123 15 14 C14.381 13.897 13.762 13.794 13.125 13.688 C11 13 11 13 9 10 C8.01 10.33 7.02 10.66 6 11 C3.934 10.914 1.871 10.762 -0.188 10.562 C-1.274 10.461 -2.361 10.359 -3.48 10.254 C-4.312 10.17 -5.143 10.086 -6 10 C-6 7.03 -6 4.06 -6 1 C-4.35 1 -2.7 1 -1 1 C-1.99 1.33 -2.98 1.66 -4 2 C-4 3.98 -4 5.96 -4 8 C-0.7 7.67 2.6 7.34 6 7 C6.33 5.68 6.66 4.36 7 3 C4.69 2.34 2.38 1.68 0 1 C0 0.67 0 0.34 0 0 Z " fill="#C56160" transform="translate(257,340)"/>
<path d="M0 0 C1.98 0.66 3.96 1.32 6 2 C6 4.31 6 6.62 6 9 C6.66 9 7.32 9 8 9 C8 11.64 8 14.28 8 17 C7.34 17 6.68 17 6 17 C5.67 18.65 5.34 20.3 5 22 C4.01 22 3.02 22 2 22 C2 23.65 2 25.3 2 27 C-1.655 27.752 -5.317 28.4 -9 29 C-9 28.34 -9 27.68 -9 27 C-7.059 25.42 -5.01 24.046 -2.945 22.633 C-0.876 20.896 -0.018 19.476 1 17 C1.66 17 2.32 17 3 17 C2.69 14.916 2.377 12.833 2.062 10.75 C1.888 9.59 1.714 8.43 1.535 7.234 C1.127 4.769 0.661 2.406 0 0 Z " fill="#C03D34" transform="translate(390,341)"/>
<path d="M0 0 C1 4 1 4 -2 12 C-11.57 12 -21.14 12 -31 12 C-31 13.32 -31 14.64 -31 16 C-20.44 16 -9.88 16 1 16 C1 15.34 1 14.68 1 14 C1.99 13.67 2.98 13.34 4 13 C3.34 14.65 2.68 16.3 2 18 C-2.824 17.882 -7.648 17.758 -12.471 17.628 C-14.114 17.584 -15.756 17.543 -17.398 17.503 C-19.754 17.445 -22.109 17.381 -24.465 17.316 C-25.203 17.3 -25.942 17.283 -26.703 17.266 C-31.886 17.114 -31.886 17.114 -33 16 C-33 14.02 -33 12.04 -33 10 C-23.1 10 -13.2 10 -3 10 C-2.67 8.35 -2.34 6.7 -2 5 C-1.366 3.321 -0.707 1.65 0 0 Z " fill="#3D3234" transform="translate(232,262)"/>
<path d="M0 0 C1.875 -0.363 1.875 -0.363 4 -0.312 C4.701 -0.309 5.402 -0.305 6.125 -0.301 C8 0 8 0 10 2 C10.438 5.438 10.438 5.438 10 9 C7.875 11.062 7.875 11.062 5 12 C1.688 11.188 1.688 11.188 -1 10 C-2.25 3.375 -2.25 3.375 0 0 Z " fill="#CA8483" transform="translate(435,362)"/>
<path d="M0 0 C0.99 0.33 1.98 0.66 3 1 C2.723 1.487 2.446 1.975 2.16 2.477 C-1.419 9.483 -1.779 16.221 -2 24 C-4.97 24 -7.94 24 -11 24 C-12.874 20.252 -12.414 15.712 -12.621 11.578 C-12.988 8.11 -13.768 5.251 -15 2 C-13.062 2.312 -13.062 2.312 -11 3 C-9.746 6.763 -9.893 10.272 -9.938 14.188 C-9.942 14.937 -9.947 15.687 -9.951 16.459 C-9.963 18.306 -9.981 20.153 -10 22 C-8.02 22 -6.04 22 -4 22 C-4.012 20.975 -4.023 19.95 -4.035 18.895 C-4.045 17.534 -4.054 16.173 -4.062 14.812 C-4.071 14.139 -4.079 13.465 -4.088 12.771 C-4.106 9.046 -3.893 5.621 -3 2 C-2.01 2 -1.02 2 0 2 C0 1.34 0 0.68 0 0 Z " fill="#C06B6B" transform="translate(425,349)"/>
<path d="M0 0 C0.66 0 1.32 0 2 0 C2 0.66 2 1.32 2 2 C2.99 2.33 3.98 2.66 5 3 C4.01 3 3.02 3 2 3 C2.195 4.195 2.195 4.195 2.395 5.414 C3.496 13.872 3.496 13.872 2.094 17.062 C-0.77 20.555 -3.912 22.704 -8.367 23.336 C-14.109 23.425 -17.499 22.939 -22 19 C-22.66 18.01 -23.32 17.02 -24 16 C-22.02 16.33 -20.04 16.66 -18 17 C-18 17.66 -18 18.32 -18 19 C-15.916 18.858 -13.833 18.712 -11.75 18.562 C-10.59 18.481 -9.43 18.4 -8.234 18.316 C-4.842 18.064 -4.842 18.064 -1 17 C-0.67 11.39 -0.34 5.78 0 0 Z " fill="#C4726D" transform="translate(336,160)"/>
<path d="M0 0 C1.653 0.017 1.653 0.017 3.34 0.035 C4.997 0.049 4.997 0.049 6.688 0.062 C7.542 0.074 8.397 0.086 9.277 0.098 C9.607 1.418 9.937 2.738 10.277 4.098 C9.287 4.593 9.287 4.593 8.277 5.098 C8.277 4.108 8.277 3.118 8.277 2.098 C4.647 2.098 1.017 2.098 -2.723 2.098 C-3.053 4.738 -3.383 7.378 -3.723 10.098 C-4.383 10.098 -5.043 10.098 -5.723 10.098 C-6.053 12.408 -6.383 14.718 -6.723 17.098 C-4.743 17.098 -2.763 17.098 -0.723 17.098 C0.54 21.391 -0.093 23.976 -1.723 28.098 C-0.733 28.428 0.257 28.758 1.277 29.098 C0.287 30.088 -0.703 31.078 -1.723 32.098 C-2.713 31.768 -3.703 31.438 -4.723 31.098 C-4.063 27.138 -3.403 23.178 -2.723 19.098 C-4.373 19.098 -6.023 19.098 -7.723 19.098 C-8.053 18.768 -8.383 18.438 -8.723 18.098 C-8.361 12.429 -6.77 0.243 0 0 Z " fill="#C27C76" transform="translate(229.72265625,311.90234375)"/>
<path d="M0 0 C0.33 0 0.66 0 1 0 C1 12.21 1 24.42 1 37 C8.92 36.67 16.84 36.34 25 36 C20.498 39.377 20.498 39.377 16.051 39.328 C14.656 39.32 14.656 39.32 13.232 39.312 C11.787 39.282 11.787 39.282 10.312 39.25 C9.337 39.245 8.362 39.24 7.357 39.234 C0.154 39.154 0.154 39.154 -1 38 C-1.1 36.13 -1.131 34.256 -1.133 32.383 C-1.134 31.217 -1.135 30.052 -1.137 28.852 C-1.133 27.622 -1.129 26.392 -1.125 25.125 C-1.129 23.934 -1.133 22.743 -1.137 21.516 C-1.129 14.288 -0.806 7.184 0 0 Z " fill="#BB6662" transform="translate(323,334)"/>
<path d="M0 0 C7.59 0 15.18 0 23 0 C23 0.33 23 0.66 23 1 C16.4 1 9.8 1 3 1 C3 2.98 3 4.96 3 7 C9.27 7 15.54 7 22 7 C22 9.97 22 12.94 22 16 C15.73 16 9.46 16 3 16 C3 15.67 3 15.34 3 15 C8.94 15 14.88 15 21 15 C20.67 13.02 20.34 11.04 20 9 C13.4 9 6.8 9 0 9 C0 6.03 0 3.06 0 0 Z " fill="#525253" transform="translate(120,341)"/>
<path d="M0 0 C7.855 0.109 13.988 1.362 20.066 6.571 C20.52 7.149 20.974 7.726 21.441 8.321 C21.111 8.981 20.781 9.641 20.441 10.321 C18.004 9.509 18.004 9.509 15.441 8.321 C15.111 7.331 14.781 6.341 14.441 5.321 C9.223 2.839 3.734 2.891 -1.934 2.696 C-5.11 2.573 -8.286 2.449 -11.559 2.321 C-11.559 13.871 -11.559 25.421 -11.559 37.321 C-11.889 37.321 -12.219 37.321 -12.559 37.321 C-12.583 32.213 -12.602 27.104 -12.614 21.995 C-12.619 20.256 -12.626 18.517 -12.634 16.778 C-12.646 14.283 -12.652 11.789 -12.656 9.294 C-12.662 8.512 -12.667 7.729 -12.672 6.923 C-12.672 5.056 -12.621 3.188 -12.559 1.321 C-10.15 -1.088 -3.39 0.011 0 0 Z " fill="#C98A89" transform="translate(375.558837890625,331.6787109375)"/>
<path d="M0 0 C2.887 -0.062 5.775 -0.124 8.75 -0.188 C9.653 -0.215 10.557 -0.242 11.487 -0.27 C17.434 -0.332 17.434 -0.332 20.578 1.512 C21.282 2.248 21.282 2.248 22 3 C21.01 4.485 21.01 4.485 20 6 C17.373 6.221 14.991 6.282 12.375 6.188 C11.669 6.174 10.962 6.16 10.234 6.146 C8.489 6.111 6.745 6.057 5 6 C4.67 4.68 4.34 3.36 4 2 C3.01 2 2.02 2 1 2 C1 7.28 1 12.56 1 18 C0.67 18 0.34 18 0 18 C0 12.06 0 6.12 0 0 Z " fill="#BC3730" transform="translate(324,334)"/>
<path d="M0 0 C0.99 0.33 1.98 0.66 3 1 C3 1.66 3 2.32 3 3 C4.32 3 5.64 3 7 3 C7 7.95 7 12.9 7 18 C6.01 18 5.02 18 4 18 C3.67 17.34 3.34 16.68 3 16 C2.01 15.67 1.02 15.34 0 15 C-0.33 15.99 -0.66 16.98 -1 18 C-0.505 9.09 -0.505 9.09 0 0 Z " fill="#B83A38" transform="translate(350,343)"/>
<path d="M0 0 C2.64 0 5.28 0 8 0 C7.67 0.99 7.34 1.98 7 3 C6.345 3.286 5.69 3.572 5.016 3.867 C2.76 4.842 2.76 4.842 2.172 7.383 C2.033 8.288 1.893 9.193 1.75 10.125 C1.6 11.035 1.451 11.945 1.297 12.883 C1.199 13.581 1.101 14.28 1 15 C0.01 15 -0.98 15 -2 15 C-2.33 15.66 -2.66 16.32 -3 17 C-3.99 16.01 -4.98 15.02 -6 14 C-4.508 9.028 -2.395 4.582 0 0 Z " fill="#BF403A" transform="translate(427,334)"/>
<path d="M0 0 C0.33 0 0.66 0 1 0 C1.025 1.019 1.05 2.039 1.076 3.089 C1.17 6.865 1.27 10.641 1.372 14.417 C1.416 16.052 1.457 17.687 1.497 19.323 C1.555 21.671 1.619 24.019 1.684 26.367 C1.7 27.101 1.717 27.834 1.734 28.59 C1.786 32.422 1.786 32.422 3 36 C9.93 36.33 16.86 36.66 24 37 C24 37.66 24 38.32 24 39 C16.08 39 8.16 39 0 39 C0 26.13 0 13.26 0 0 Z " fill="#B35654" transform="translate(244,334)"/>
<path d="M0 0 C2.97 0.99 5.94 1.98 9 3 C10.339 12.107 10.339 12.107 8 16 C6.68 16 5.36 16 4 16 C4 15.34 4 14.68 4 14 C3.34 14 2.68 14 2 14 C1.67 11.69 1.34 9.38 1 7 C3.475 7.99 3.475 7.99 6 9 C4.709 6 4.709 6 3 3 C2.01 2.67 1.02 2.34 0 2 C0 1.34 0 0.68 0 0 Z " fill="#BE5958" transform="translate(265,334)"/>
<path d="M0 0 C8.25 0 16.5 0 25 0 C25 3.63 25 7.26 25 11 C19.06 11.33 13.12 11.66 7 12 C7.33 11.01 7.66 10.02 8 9 C12.62 9 17.24 9 22 9 C22 6.36 22 3.72 22 1 C15.07 1 8.14 1 1 1 C1 1.66 1 2.32 1 3 C0.34 3 -0.32 3 -1 3 C-0.67 2.01 -0.34 1.02 0 0 Z " fill="#533B3A" transform="translate(287,163)"/>
<path d="M0 0 C2.062 -0.041 4.125 -0.082 6.25 -0.125 C7.99 -0.16 7.99 -0.16 9.766 -0.195 C12.828 -0.01 14.442 0.392 17 2 C17.364 9.401 17.364 9.401 15.938 11.75 C12.949 13.678 10.316 13.284 6.812 13.188 C5.54 13.16 4.268 13.133 2.957 13.105 C1.981 13.071 1.005 13.036 0 13 C0 8.71 0 4.42 0 0 Z M2 2 C2 4.97 2 7.94 2 11 C3.583 11.054 5.166 11.093 6.75 11.125 C7.632 11.148 8.513 11.171 9.422 11.195 C12.114 10.991 13.699 10.366 16 9 C16 7.02 16 5.04 16 3 C11.126 0.311 7.405 1.184 2 2 Z " fill="#4E4E4F" transform="translate(82,340)"/>
<path d="M0 0 C0.66 0 1.32 0 2 0 C2 2.31 2 4.62 2 7 C8.93 7 15.86 7 23 7 C24 14 24 14 23 16 C13.1 16 3.2 16 -7 16 C-7 15.67 -7 15.34 -7 15 C2.57 15 12.14 15 22 15 C22 12.69 22 10.38 22 8 C11.11 8.495 11.11 8.495 0 9 C0 6.03 0 3.06 0 0 Z " fill="#404040" transform="translate(121,357)"/>
<path d="M0 0 C2.905 -0.336 5.532 -0.473 8.438 -0.438 C9.246 -0.434 10.054 -0.431 10.886 -0.428 C17.478 -0.275 23.055 1.067 29 4 C29 4.66 29 5.32 29 6 C27.721 6.062 26.442 6.124 25.125 6.188 C24.406 6.222 23.686 6.257 22.945 6.293 C22.303 6.196 21.661 6.1 21 6 C20.34 5.01 19.68 4.02 19 3 C16.977 2.494 16.977 2.494 14.648 2.488 C13.798 2.453 12.947 2.417 12.07 2.381 C11.181 2.358 10.291 2.336 9.375 2.312 C8.029 2.261 8.029 2.261 6.656 2.209 C4.438 2.126 2.219 2.062 0 2 C0 5.63 0 9.26 0 13 C-2.458 9.313 -2.311 7.357 -2 3 C-1.34 2.01 -0.68 1.02 0 0 Z " fill="#CD8A88" transform="translate(323,332)"/>
<path d="M0 0 C2.962 0.613 4.381 1.254 7 3 C6.67 4.32 6.34 5.64 6 7 C5.34 7 4.68 7 4 7 C4 7.66 4 8.32 4 9 C1.697 11.217 0.475 11.968 -2.75 12.188 C-3.493 12.126 -4.235 12.064 -5 12 C-4.67 9.36 -4.34 6.72 -4 4 C-2.68 3.67 -1.36 3.34 0 3 C0 2.01 0 1.02 0 0 Z " fill="#BD3A34" transform="translate(350,358)"/>
<path d="M0 0 C1.134 0.021 2.269 0.041 3.438 0.062 C3.767 0.723 4.098 1.382 4.438 2.062 C2.127 2.392 -0.183 2.723 -2.562 3.062 C-2.562 10.322 -2.562 17.582 -2.562 25.062 C1.397 24.402 5.358 23.743 9.438 23.062 C9.438 23.723 9.438 24.382 9.438 25.062 C6.673 26.445 4.391 26.158 1.312 26.125 C0.217 26.116 -0.879 26.107 -2.008 26.098 C-3.272 26.08 -3.272 26.08 -4.562 26.062 C-4.591 21.917 -4.609 17.771 -4.625 13.625 C-4.633 12.441 -4.642 11.257 -4.65 10.037 C-4.654 8.912 -4.657 7.788 -4.66 6.629 C-4.665 5.587 -4.671 4.545 -4.676 3.471 C-4.494 -0.399 -4.028 0.071 0 0 Z " fill="#C67675" transform="translate(334.5625,338.9375)"/>
<path d="M0 0 C1.34 0.07 1.34 0.07 2.707 0.141 C3.608 0.177 4.509 0.213 5.438 0.25 C6.468 0.32 6.468 0.32 7.52 0.391 C7.173 7.155 3.204 12.706 -1.48 17.391 C-1.393 15.785 -1.285 14.181 -1.168 12.578 C-1.11 11.685 -1.052 10.791 -0.992 9.871 C-0.413 7.064 0.242 6.084 2.52 4.391 C3.18 4.391 3.84 4.391 4.52 4.391 C4.85 3.731 5.18 3.071 5.52 2.391 C2.88 2.721 0.24 3.051 -2.48 3.391 C-2.883 4.597 -2.883 4.597 -3.293 5.828 C-3.881 7.097 -3.881 7.097 -4.48 8.391 C-5.47 8.721 -6.46 9.051 -7.48 9.391 C-4.336 0.683 -4.336 0.683 0 0 Z " fill="#CA8A8A" transform="translate(429.48046875,331.609375)"/>
<path d="M0 0 C5.94 0 11.88 0 18 0 C18.33 1.65 18.66 3.3 19 5 C15.977 8.455 14.366 9.862 9.707 10.332 C6.459 10.314 3.241 10.216 0 10 C0 6.7 0 3.4 0 0 Z M1 2 C0.833 4.5 0.833 4.5 1 7 C2.73 8.73 5.025 8.172 7.375 8.188 C8.352 8.202 9.329 8.216 10.336 8.23 C13.228 8.195 13.228 8.195 16 6 C15.505 3.525 15.505 3.525 15 1 C12.854 0.973 10.708 0.954 8.562 0.938 C6.77 0.92 6.77 0.92 4.941 0.902 C2.111 0.661 2.111 0.661 1 2 Z " fill="#C06764" transform="translate(251,356)"/>
<path d="M0 0 C12.87 0.495 12.87 0.495 26 1 C26 1.33 26 1.66 26 2 C18.41 2 10.82 2 3 2 C2.34 3.32 1.68 4.64 1 6 C-0.865 8.009 -2.188 8.908 -4.934 9.219 C-8.198 9.267 -10.895 9.035 -14 8 C-14 7.34 -14 6.68 -14 6 C-14.66 6 -15.32 6 -16 6 C-16 5.34 -16 4.68 -16 4 C-15.01 4 -14.02 4 -13 4 C-12.67 4.66 -12.34 5.32 -12 6 C-9.644 6.468 -9.644 6.468 -6.938 6.625 C-6.018 6.7 -5.099 6.775 -4.152 6.852 C-3.442 6.901 -2.732 6.95 -2 7 C-2 6.01 -2 5.02 -2 4 C-1.34 4 -0.68 4 0 4 C0 2.68 0 1.36 0 0 Z " fill="#BA7A79" transform="translate(197,278)"/>
<path d="M0 0 C2.777 2.777 3.186 5.179 4 9 C3.676 15.148 1.995 19.771 -2.125 24.375 C-4 26 -4 26 -5 26 C-5 24.35 -5 22.7 -5 21 C-4.01 20.67 -3.02 20.34 -2 20 C-1.267 17.985 -1.267 17.985 -1 16 C-0.34 16 0.32 16 1 16 C0.67 10.72 0.34 5.44 0 0 Z " fill="#C37B78" transform="translate(397,342)"/>
<path d="M0 0 C0.99 0.33 1.98 0.66 3 1 C2.723 1.487 2.446 1.975 2.16 2.477 C-1.419 9.483 -1.779 16.221 -2 24 C-4.97 24 -7.94 24 -11 24 C-11 23.67 -11 23.34 -11 23 C-8.36 23 -5.72 23 -3 23 C-3.126 21.355 -3.126 21.355 -3.254 19.676 C-3.357 18.221 -3.46 16.767 -3.562 15.312 C-3.619 14.591 -3.675 13.87 -3.732 13.127 C-4 9.227 -4.009 5.789 -3 2 C-2.01 2 -1.02 2 0 2 C0 1.34 0 0.68 0 0 Z " fill="#C08281" transform="translate(425,349)"/>
<path d="M0 0 C2.31 0 4.62 0 7 0 C7 0.66 7 1.32 7 2 C7.99 2.33 8.98 2.66 10 3 C11.744 8.233 11.679 13.88 10 19.125 C9.67 19.744 9.34 20.363 9 21 C7.68 20.67 6.36 20.34 5 20 C5.49 19.618 5.98 19.237 6.484 18.844 C8.552 16.329 8.336 14.715 8.25 11.5 C8.235 10.541 8.219 9.582 8.203 8.594 C8.096 5.886 8.096 5.886 7 3 C3.488 1.77 3.488 1.77 0 1 C0 0.67 0 0.34 0 0 Z " fill="#BC6869" transform="translate(339,341)"/>
<path d="M0 0 C0 1.65 0 3.3 0 5 C-0.66 5 -1.32 5 -2 5 C-2 5.66 -2 6.32 -2 7 C-3.98 7 -5.96 7 -8 7 C-8 4.69 -8 2.38 -8 0 C-5.138 -1.431 -3.066 -0.6 0 0 Z " fill="#BB4745" transform="translate(443,365)"/>
<path d="M0 0 C2.169 0.506 4 1 6 2 C6 2.66 6 3.32 6 4 C11.409 3.601 15.959 3.076 21 1 C23.312 1.375 23.312 1.375 25 2 C20.462 5.728 16.995 6.3 11.098 6.223 C7.591 5.85 5.105 4.676 2 3 C1.34 2.01 0.68 1.02 0 0 Z " fill="#C97F79" transform="translate(285,368)"/>
<path d="M0 0 C6.078 -0.352 6.078 -0.352 9 0 C11.062 2 11.062 2 12 4 C11.34 4.66 10.68 5.32 10 6 C9.103 5.01 9.103 5.01 8.188 4 C6.125 1.663 6.125 1.663 3 2 C2.939 2.782 2.879 3.565 2.816 4.371 C2.733 5.383 2.649 6.395 2.562 7.438 C2.481 8.447 2.4 9.456 2.316 10.496 C2 13 2 13 1 14 C-1.671 14.141 -4.324 14.042 -7 14 C-7 13.67 -7 13.34 -7 13 C-4.69 13 -2.38 13 0 13 C0 8.71 0 4.42 0 0 Z " fill="#4A4A4A" transform="translate(82,359)"/>
<path d="M0 0 C0.33 0 0.66 0 1 0 C1 2.31 1 4.62 1 7 C5.62 7 10.24 7 15 7 C15 6.34 15 5.68 15 5 C15.66 5.33 16.32 5.66 17 6 C14.818 8.601 13.408 9.876 10.125 10.875 C5.749 11.05 2.472 10.275 -0.875 7.375 C-1.246 6.921 -1.618 6.467 -2 6 C-1.34 4.02 -0.68 2.04 0 0 Z " fill="#95BE7C" transform="translate(320,276)"/>
<path d="M0 0 C2.474 0.33 3.664 0.58 5.25 2.562 C6.341 6.109 6.123 9.295 6 13 C5.67 13 5.34 13 5 13 C5 10.69 5 8.38 5 6 C4.34 6 3.68 6 3 6 C3 6.99 3 7.98 3 9 C2.01 8.67 1.02 8.34 0 8 C-1.125 2.25 -1.125 2.25 0 0 Z " fill="#181719" transform="translate(252,275)"/>
<path d="M0 0 C2.693 1.425 4.657 3.006 7 5 C6.01 5.495 6.01 5.495 5 6 C4.01 5.67 3.02 5.34 2 5 C2 4.34 2 3.68 2 3 C-2.29 3 -6.58 3 -11 3 C-11 3.66 -11 4.32 -11 5 C-12.32 4.67 -13.64 4.34 -15 4 C-10.211 0.071 -6.193 -1.297 0 0 Z " fill="#CF8382" transform="translate(329,153)"/>
<path d="M0 0 C3 2 3 2 3.875 4.75 C4.03 8.788 3.198 10.63 1 14 C-1.5 16.438 -1.5 16.438 -4 18 C-4.99 17.67 -5.98 17.34 -7 17 C-5.68 16.67 -4.36 16.34 -3 16 C-3 15.01 -3 14.02 -3 13 C-2.01 13 -1.02 13 0 13 C1.004 6.475 1.004 6.475 0 0 Z " fill="#C57E7D" transform="translate(274,354)"/>
<path d="M0 0 C2.97 0.495 2.97 0.495 6 1 C6 1.66 6 2.32 6 3 C8.125 2.859 10.25 2.712 12.375 2.562 C13.558 2.481 14.742 2.4 15.961 2.316 C18.915 2.189 18.915 2.189 21 1 C21 1.99 21 2.98 21 4 C17.556 5.148 14.691 5.276 11.062 5.375 C9.224 5.448 9.224 5.448 7.348 5.523 C4 5 4 5 1.559 2.477 C1.044 1.659 0.53 0.842 0 0 Z " fill="#C35350" transform="translate(312,176)"/>
<path d="M0 0 C0.99 0.33 1.98 0.66 3 1 C1.612 4.89 -0.215 7.966 -2.625 11.312 C-3.257 12.196 -3.888 13.079 -4.539 13.988 C-5.021 14.652 -5.503 15.316 -6 16 C-6.33 14.68 -6.66 13.36 -7 12 C-6.34 12 -5.68 12 -5 12 C-5 10.68 -5 9.36 -5 8 C-4.34 8 -3.68 8 -3 8 C-2.67 6.35 -2.34 4.7 -2 3 C-1.01 3 -0.02 3 1 3 C0.67 2.01 0.34 1.02 0 0 Z " fill="#C67E79" transform="translate(238,324)"/>
<path d="M0 0 C1.653 0.017 1.653 0.017 3.34 0.035 C4.997 0.049 4.997 0.049 6.688 0.062 C7.542 0.074 8.397 0.086 9.277 0.098 C9.607 1.418 9.937 2.738 10.277 4.098 C9.287 4.593 9.287 4.593 8.277 5.098 C8.277 4.108 8.277 3.118 8.277 2.098 C4.527 2.11 0.937 2.239 -2.723 3.098 C-5.038 5.969 -5.038 5.969 -5.723 9.098 C-6.053 8.438 -6.383 7.778 -6.723 7.098 C-3.594 0.129 -3.594 0.129 0 0 Z " fill="#DCA5A6" transform="translate(229.72265625,311.90234375)"/>
<path d="M0 0 C2.475 0.495 2.475 0.495 5 1 C4.01 1.495 4.01 1.495 3 2 C3 2.66 3 3.32 3 4 C3.99 4 4.98 4 6 4 C6 5.32 6 6.64 6 8 C6.99 8 7.98 8 9 8 C9.33 10.31 9.66 12.62 10 15 C5.847 11.326 2.766 6.776 0 2 C0 1.34 0 0.68 0 0 Z " fill="#C56E6C" transform="translate(400,336)"/>
<path d="M0 0 C0.66 0.681 1.32 1.361 2 2.062 C6.18 4.762 8.221 3.972 13 3 C12.67 4.32 12.34 5.64 12 7 C7.545 7.495 7.545 7.495 3 8 C2.67 6.68 2.34 5.36 2 4 C1.34 4 0.68 4 0 4 C0 2.68 0 1.36 0 0 Z " fill="#C67169" transform="translate(291,359)"/>
<path d="M0 0 C2.97 0 5.94 0 9 0 C9.33 0.99 9.66 1.98 10 3 C9.01 3.33 8.02 3.66 7 4 C6.67 4.66 6.34 5.32 6 6 C5.01 6 4.02 6 3 6 C2.67 5.01 2.34 4.02 2 3 C1.34 2.67 0.68 2.34 0 2 C0 1.34 0 0.68 0 0 Z " fill="#B13F3E" transform="translate(400,334)"/>
<path d="M0 0 C0.66 0.66 1.32 1.32 2 2 C1.625 4.125 1.625 4.125 1 6 C-0.32 6.33 -1.64 6.66 -3 7 C-2.67 7.99 -2.34 8.98 -2 10 C-1.96 12.333 -1.956 14.667 -2 17 C-4.12 13.466 -4.532 10.056 -5 6 C-4.34 6 -3.68 6 -3 6 C-2.67 5.01 -2.34 4.02 -2 3 C-1.34 2.01 -0.68 1.02 0 0 Z " fill="#49484A" transform="translate(254,270)"/>
<path d="M0 0 C5.28 0 10.56 0 16 0 C16.33 1.65 16.66 3.3 17 5 C15.02 5.99 15.02 5.99 13 7 C13 5.35 13 3.7 13 2 C8.71 1.67 4.42 1.34 0 1 C0 0.67 0 0.34 0 0 Z " fill="#D8776E" transform="translate(253,356)"/>
<path d="M0 0 C5.291 -0.434 5.291 -0.434 8 0 C10.367 2.749 11.344 5.457 12 9 C11.01 8.67 10.02 8.34 9 8 C8.67 6.02 8.34 4.04 8 2 C5.03 2 2.06 2 -1 2 C-0.67 1.34 -0.34 0.68 0 0 Z " fill="#59595A" transform="translate(163,332)"/>
<path d="M0 0 C0.33 0.66 0.66 1.32 1 2 C0.01 3.485 0.01 3.485 -1 5 C-3.461 5.363 -3.461 5.363 -6.375 5.312 C-7.331 5.309 -8.288 5.305 -9.273 5.301 C-12 5 -12 5 -16 3 C-11.38 3 -6.76 3 -2 3 C-2 2.34 -2 1.68 -2 1 C-1.34 0.67 -0.68 0.34 0 0 Z " fill="#47474A" transform="translate(235,275)"/>
<path d="M0 0 C2 1.375 2 1.375 4 4 C4.358 7.358 4.231 10.635 4 14 C3.67 14 3.34 14 3 14 C2.979 12.742 2.959 11.484 2.938 10.188 C2.77 7.983 2.77 7.983 2 6 C-0.29 4.31 -2.214 3.81 -5 3 C-3 1 -3 1 0 0 Z " fill="#87B874" transform="translate(334,267)"/>
<path d="M0 0 C0.66 0.33 1.32 0.66 2 1 C1.67 2.32 1.34 3.64 1 5 C0.34 5 -0.32 5 -1 5 C-1 5.66 -1 6.32 -1 7 C-4.462 10 -4.462 10 -7 10 C-7 9.01 -7 8.02 -7 7 C-6.01 7 -5.02 7 -4 7 C-4 6.01 -4 5.02 -4 4 C-3.34 4 -2.68 4 -2 4 C-2 3.01 -2 2.02 -2 1 C-1.34 0.67 -0.68 0.34 0 0 Z " fill="#BE6967" transform="translate(355,360)"/>
<path d="M0 0 C0.66 0 1.32 0 2 0 C2 0.99 2 1.98 2 3 C0.088 3.559 -1.83 4.097 -3.75 4.625 C-4.817 4.927 -5.885 5.228 -6.984 5.539 C-10.219 6.033 -11.339 5.796 -14 4 C-14 3.67 -14 3.34 -14 3 C-9.38 2.67 -4.76 2.34 0 2 C0 1.34 0 0.68 0 0 Z " fill="#B94A42" transform="translate(344,362)"/>
<path d="M0 0 C0.99 0.33 1.98 0.66 3 1 C3.75 3 3.75 3 4 5 C3 6 3 6 0.715 6.098 C-0.66 6.08 -0.66 6.08 -2.062 6.062 C-2.982 6.053 -3.901 6.044 -4.848 6.035 C-5.558 6.024 -6.268 6.012 -7 6 C-6.67 5.01 -6.34 4.02 -6 3 C-3.69 3.33 -1.38 3.66 1 4 C0.67 2.68 0.34 1.36 0 0 Z " fill="#4B4B4B" transform="translate(169,351)"/>
<path d="M0 0 C1.238 2.476 0.899 3.296 0.25 5.938 C0.09 6.627 -0.07 7.317 -0.234 8.027 C-1.107 10.275 -2.202 11.424 -4 13 C-3.913 11.395 -3.804 9.791 -3.688 8.188 C-3.629 7.294 -3.571 6.401 -3.512 5.48 C-2.937 2.694 -2.179 1.759 0 0 Z " fill="#C86866" transform="translate(432,336)"/>
<path d="M0 0 C3 1 3 1 4 3 C4.353 9.471 4.353 9.471 2 13 C1.34 13 0.68 13 0 13 C0.084 12.397 0.168 11.793 0.254 11.172 C0.407 9.973 0.407 9.973 0.562 8.75 C0.667 7.961 0.771 7.172 0.879 6.359 C1 3.995 0.696 2.249 0 0 Z " fill="#CA7D7E" transform="translate(388,346)"/>
<path d="M0 0 C0.66 0 1.32 0 2 0 C2 0.66 2 1.32 2 2 C2.99 2.33 3.98 2.66 5 3 C4.01 3 3.02 3 2 3 C2 5.97 2 8.94 2 12 C1.34 12 0.68 12 0 12 C0 13.65 0 15.3 0 17 C-0.33 17 -0.66 17 -1 17 C-0.67 11.39 -0.34 5.78 0 0 Z " fill="#BC5853" transform="translate(336,160)"/>
<path d="M0 0 C0.934 3.01 1.044 3.867 0 7 C-0.66 7 -1.32 7 -2 7 C-2 9.64 -2 12.28 -2 15 C-2.99 15 -3.98 15 -5 15 C-4.519 9.226 -2.815 5.041 0 0 Z " fill="#BE7171" transform="translate(226,315)"/>
<path d="M0 0 C1.198 3.648 0.973 6.885 0.688 10.688 C0.609 11.846 0.53 13.005 0.449 14.199 C0.301 15.123 0.153 16.048 0 17 C-0.66 17.33 -1.32 17.66 -2 18 C-1.67 13.71 -1.34 9.42 -1 5 C-2.32 4.67 -3.64 4.34 -5 4 C-4.01 4 -3.02 4 -2 4 C-1.34 2.68 -0.68 1.36 0 0 Z " fill="#C46B69" transform="translate(313,158)"/>
<path d="M0 0 C1.65 0 3.3 0 5 0 C5 1.65 5 3.3 5 5 C2.03 4.505 2.03 4.505 -1 4 C-0.67 2.68 -0.34 1.36 0 0 Z " fill="#C2453B" transform="translate(438,365)"/>
<path d="M0 0 C1.98 0.99 1.98 0.99 4 2 C4 3.98 4 5.96 4 8 C3.01 8 2.02 8 1 8 C0.67 5.36 0.34 2.72 0 0 Z " fill="#B85B5A" transform="translate(352,338)"/>
<path d="M0 0 C1.769 -0.108 3.541 -0.186 5.312 -0.25 C6.299 -0.296 7.285 -0.343 8.301 -0.391 C11 0 11 0 12.855 2.016 C13.233 2.67 13.611 3.325 14 4 C13.241 3.856 12.481 3.711 11.699 3.562 C10.705 3.377 9.711 3.191 8.688 3 C7.701 2.814 6.715 2.629 5.699 2.438 C2.962 1.92 2.962 1.92 0 2 C0 1.34 0 0.68 0 0 Z " fill="#CC7F7F" transform="translate(373,340)"/>
<path d="M0 0 C2.64 0 5.28 0 8 0 C7.67 0.99 7.34 1.98 7 3 C4.69 3 2.38 3 0 3 C-0.33 3.99 -0.66 4.98 -1 6 C-1.33 5.34 -1.66 4.68 -2 4 C-1.062 1.875 -1.062 1.875 0 0 Z " fill="#B54946" transform="translate(427,334)"/>
<path d="M0 0 C2.301 1.782 3.8 3.163 4.488 6.047 C4.723 8.025 4.868 10.013 5 12 C4.34 12 3.68 12 3 12 C2.494 10.564 1.996 9.126 1.5 7.688 C1.222 6.887 0.943 6.086 0.656 5.262 C0 3 0 3 0 0 Z " fill="#575759" transform="translate(262,229)"/>
<path d="M0 0 C0.99 0.33 1.98 0.66 3 1 C3 1.66 3 2.32 3 3 C2.34 3 1.68 3 1 3 C1 4.32 1 5.64 1 7 C-0.32 7.33 -1.64 7.66 -3 8 C-1.125 1.125 -1.125 1.125 0 0 Z " fill="#A73F3C" transform="translate(230,333)"/>
<path d="M0 0 C0.33 0 0.66 0 1 0 C1 4.29 1 8.58 1 13 C-0.65 13.33 -2.3 13.66 -4 14 C-3.519 13.448 -3.038 12.897 -2.543 12.328 C-0.76 9.639 -0.522 7.942 -0.312 4.75 C-0.247 3.858 -0.181 2.966 -0.113 2.047 C-0.076 1.371 -0.039 0.696 0 0 Z " fill="#D78B88" transform="translate(348,348)"/>
<path d="M0 0 C0.99 0.33 1.98 0.66 3 1 C3 2.65 3 4.3 3 6 C2.01 6.495 2.01 6.495 1 7 C0.278 8.644 -0.394 10.311 -1 12 C-2.099 8.703 -1.871 7.595 -1.062 4.312 C-0.868 3.504 -0.673 2.696 -0.473 1.863 C-0.317 1.248 -0.161 0.634 0 0 Z " fill="#484848" transform="translate(165,342)"/>
<path d="M0 0 C2.31 0.66 4.62 1.32 7 2 C7.33 3.98 7.66 5.96 8 8 C7.67 7.34 7.34 6.68 7 6 C6.01 5.67 5.02 5.34 4 5 C3.67 4.34 3.34 3.68 3 3 C2.01 2.67 1.02 2.34 0 2 C0 1.34 0 0.68 0 0 Z " fill="#AE4645" transform="translate(265,334)"/>
<path d="M0 0 C6.152 -0.098 6.152 -0.098 8 0 C9 1 9 1 9.062 4.062 C9.042 5.032 9.021 6.001 9 7 C8.01 7 7.02 7 6 7 C6.33 5.68 6.66 4.36 7 3 C4.69 2.34 2.38 1.68 0 1 C0 0.67 0 0.34 0 0 Z " fill="#C77975" transform="translate(257,340)"/>
<path d="M0 0 C0.99 0.33 1.98 0.66 3 1 C3 1.66 3 2.32 3 3 C2.01 3 1.02 3 0 3 C-0.33 4.65 -0.66 6.3 -1 8 C-1.66 8 -2.32 8 -3 8 C-2.453 4.625 -1.945 2.918 0 0 Z " fill="#B3433D" transform="translate(236,324)"/>
<path d="M0 0 C1.32 0.33 2.64 0.66 4 1 C4 3.97 4 6.94 4 10 C3.67 10 3.34 10 3 10 C1.871 6.689 0.787 3.41 0 0 Z " fill="#B64C4C" transform="translate(195,268)"/>
<path d="M0 0 C1.32 0 2.64 0 4 0 C3.602 2.886 3.21 3.822 0.938 5.75 C0.298 6.162 -0.341 6.575 -1 7 C-0.67 4.69 -0.34 2.38 0 0 Z " fill="#C03A35" transform="translate(314,158)"/>
<path d="M0 0 C0.99 0.33 1.98 0.66 3 1 C1.358 3.021 -0.309 5.02 -2 7 C-2.33 7 -2.66 7 -3 7 C-3 5.35 -3 3.7 -3 2 C-2.01 2 -1.02 2 0 2 C0 1.34 0 0.68 0 0 Z " fill="#C15F5F" transform="translate(425,349)"/>
<path d="M0 0 C1.602 4.004 0.409 7.07 -1 11 C-1.99 11.495 -1.99 11.495 -3 12 C-2.401 7.805 -1.425 3.99 0 0 Z " fill="#555555" transform="translate(276,195)"/>
<path d="M0 0 C-1.645 1.688 -3.313 3.354 -5 5 C-5.33 5 -5.66 5 -6 5 C-6 3.35 -6 1.7 -6 0 C-3 -1 -3 -1 0 0 Z " fill="#C96B6D" transform="translate(398,363)"/>
<path d="M0 0 C1.98 0 3.96 0 6 0 C5.67 1.32 5.34 2.64 5 4 C4.34 4 3.68 4 3 4 C3 3.34 3 2.68 3 2 C2.34 2 1.68 2 1 2 C0.67 2.66 0.34 3.32 0 4 C0 2.68 0 1.36 0 0 Z " fill="#C03B32" transform="translate(228,315)"/>
<path d="M0 0 C0.33 0 0.66 0 1 0 C1.124 1.093 1.248 2.186 1.375 3.312 C1.755 7.074 1.755 7.074 4 10 C1.546 9.019 0.204 8.278 -1.375 6.125 C-2 4 -2 4 -1.125 1.75 C-0.754 1.173 -0.382 0.595 0 0 Z " fill="#A0C48C" transform="translate(320,276)"/>
<path d="M0 0 C1.98 0.99 1.98 0.99 4 2 C3.34 2 2.68 2 2 2 C2.495 2.784 2.99 3.567 3.5 4.375 C5 7 5 7 5 9 C4.01 8.67 3.02 8.34 2 8 C1.27 6.152 1.27 6.152 0.812 3.938 C0.654 3.204 0.495 2.471 0.332 1.715 C0.222 1.149 0.113 0.583 0 0 Z " fill="#5C5C5C" transform="translate(99,356)"/>
<path d="M0 0 C0.66 0.33 1.32 0.66 2 1 C0.755 4.736 -0.634 5.188 -4 7 C-3.436 3.73 -2.5 2.174 0 0 Z " fill="#8FB887" transform="translate(322,265)"/>
<path d="M0 0 C-3.435 2.29 -4.985 2.178 -9 2 C-8 0 -8 0 -6.188 -0.688 C-3.812 -1.027 -2.267 -0.729 0 0 Z " fill="#C0655F" transform="translate(310,370)"/>
<path d="M0 0 C0.33 0.66 0.66 1.32 1 2 C3.025 2.652 3.025 2.652 5 3 C-0.75 6 -0.75 6 -3 6 C-3 5.34 -3 4.68 -3 4 C-2.01 4 -1.02 4 0 4 C0 2.68 0 1.36 0 0 Z " fill="#C3746E" transform="translate(387,366)"/>
<path d="M0 0 C0.33 0.66 0.66 1.32 1 2 C0.67 2.99 0.34 3.98 0 5 C-0.66 5 -1.32 5 -2 5 C-2 6.65 -2 8.3 -2 10 C-2.33 10 -2.66 10 -3 10 C-3.293 3.945 -3.293 3.945 -3 2 C-2.01 1.34 -1.02 0.68 0 0 Z " fill="#CD7C7A" transform="translate(424,354)"/>
</svg>
